# xmcd
#
# Track frame offsets: 
#        150
#        23142
#        45027
#        64190
#        83377
#        104482
#        126020
#        144215
#        173630
#        204325
#        223685
#        248557
#        272797
#        303680
#        328827
#
# Disc length: 4474 seconds
#
# Revision: 2
# Processed by: cddbd v1.5.2PL0 Copyright (c) Steve Scherf et al.
# Submitted via: ExactAudioCopy v1.0b3
#
DISCID=c711780f
DTITLE=Kool and The Gang - Unite
DYEAR=1992
DGENRE=Soul
TTITLE0=Dance
TTITLE1=I think i love you
TTITLE2=Love come down
TTITLE3=Pretty little sexy miss
TTITLE4=Better late than never
TTITLE5=Heart
TTITLE6=My search is over
TTITLE7=Summer
TTITLE8=Brown
TTITLE9=Give right now to you
TTITLE10=The weight
TTITLE11=Show us the way
TTITLE12=Unite
TTITLE13=God will find you
TTITLE14=Spatial relationship
EXTD=
EXTT0=
EXTT1=
EXTT2=
EXTT3=
EXTT4=
EXTT5=
EXTT6=
EXTT7=
EXTT8=
EXTT9=
EXTT10=
EXTT11=
EXTT12=
EXTT13=
EXTT14=
PLAYORDER=
